<svg xmlns="http://www.w3.org/2000/svg" width="3690.0000008940697" height="1659.0000089406972"><rect id="backgroundrect" width="100%" height="100%" x="0" y="0" fill="none" stroke="none" class="" style=""/>
  
<g class="currentLayer" style=""><title>Layer 1</title><g fill="none" fill-rule="evenodd" id="svg_1" class="" stroke="#ffffff" stroke-opacity="1" stroke-linecap="round" filter="url(#f001)">
    <g id="svg_2" stroke="#ffffff" stroke-opacity="1" stroke-linecap="round" filter="url(#f001)">
      <path class="cell-container" stroke="#ffffff" d="M10.5,10.5 h365.35833381168675 v509 H10.5 z" id="svg_3" stroke-opacity="1" stroke-linecap="round" filter="url(#f001)"/>
      <path class="cell-container" stroke="#ffffff" d="M375.85833381168675,10.5 h365.35833381168675 v509 h-365.35833381168675 z" id="svg_4" stroke-opacity="1" stroke-linecap="round" filter="url(#f001)"/>
      <path class="cell-container" stroke="#ffffff" d="M741.2166676233735,10.5 h365.35833381168675 v509 h-365.35833381168675 z" id="svg_5" stroke-opacity="1" stroke-linecap="round" filter="url(#f001)"/>
      <path class="cell-container" stroke="#ffffff" d="M1106.5750014350604,10.5 h376.55315741037356 v509 h-376.55315741037356 z" id="svg_6" stroke-opacity="1" stroke-linecap="round" filter="url(#f001)"/>
      <path class="cell-container" stroke="#ffffff" d="M1484.1458700816781,10.5 h376.55315741037356 v509 h-376.55315741037356 z" id="svg_7" stroke-opacity="1" stroke-linecap="round" filter="url(#f001)"/>
      <path class="cell-container" stroke="#ffffff" d="M1860.6990274920518,10.5 h376.55315741037356 v509 h-376.55315741037356 z" id="svg_8" stroke-opacity="1" stroke-linecap="round" filter="url(#f001)"/>
      <path class="cell-container" stroke="#ffffff" d="M2238.2698961386695,10.5 h376.55315741037356 v509 h-376.55315741037356 z" id="svg_9" stroke-opacity="1" stroke-linecap="round" filter="url(#f001)"/>
      <path class="cell-container" stroke="#ffffff" d="M2614.823053549043,10.5 h376.55315741037356 v509 h-376.55315741037356 z" id="svg_10" stroke-opacity="1" stroke-linecap="round" filter="url(#f001)"/>
      <path class="cell-container" stroke="#ffffff" d="M2992.3939221956607,10.5 h376.55315741037356 v509 h-376.55315741037356 z" id="svg_11" stroke-opacity="1" stroke-linecap="round" filter="url(#f001)"/>
      <path class="cell-container" stroke="#ffffff" d="M3368.9470796060345,10.5 h376.55315741037356 v509 h-376.55315741037356 z" id="svg_12" stroke-opacity="1" stroke-linecap="round" filter="url(#f001)"/>
      <path fill="#000" d="M61.89441743033477,298.38 c13.566090779135891,-5.34 35.955737976509454,-9.34 67.16894159212069,-12 c0,0 18.76659519634402,-9.95 55.97411799343391,-15 c1.0584196856940231,-0.15000000000000016 7.6328342718318964,-8 36.6376045047931,-13 c16.283379779908046,0 21.37193596112931,-3.88 30.531337087327586,5 c3.5925206639422127,-13.53 19.468815949352557,-16.58 29.513625851083333,-15 c7.022207530085345,1.1 11.500136969560058,5.93 12.212534834931034,8 c4.070844944977011,12 21.37193596112931,5 30.531337087327586,12 c-23.407358433617816,6 -23.407358433617816,7 -32.56675955981609,11 c-16.283379779908046,14 -31.54904832357184,31 -47.832428103479884,31 c-16.283379779908046,4 -33.41145988589882,5.33 -51.39441743033477,4 c-1.0177112362442533,4 -3.561989326854885,6.66 -7.6328342718318964,8 c-6.106267417465517,2 -1.0177112362442533,-9 -4.070844944977011,-12 s-3.0531337087327586,10 -17.3010910161523,18 c-1.0177112362442533,-14 -5.088556181221264,-10 -5.088556181221264,-18 s4.070844944977011,13 -17.3010910161523,18 c-14.24795730741954,3.33 -32.23091485185549,4 -53.9386955209454,2 c26.460492142350574,-8.67 42.06200539397497,-16.34 46.81471686723563,-23 c-5.088556181221264,0 -18.31880225239655,-1 -21.37193596112931,-9 c-14.24795730741954,-4.5 -31.21320361561124,-4.5 -50.88556181221264,0 z" id="svg_13" stroke="#ffffff" stroke-opacity="1" stroke-linecap="round" filter="url(#f001)"/>
      <path fill="#000" d="M660.3086243419555,283 c0,2.07 -10.177112362442529,3 -16.283379779908046,5 c-9.159401126198276,1 -8.141689889954023,8 -14.24795730741954,7 s-5.088556181221264,8 -19.336513488640804,14 c2.0354224724885057,11 21.37193596112931,9 36.6376045047931,19 c29.513625851083333,30.62 18.31880225239655,19 37.655315741037356,63 c14.24795730741954,28 18.31880225239655,30 27.478203378594827,57 c-1.0177112362442533,1 -11.194823598686781,-1 -14.24795730741954,-7 c-1.0177112362442533,5 -5.088556181221264,1 -4.070844944977011,7 c-5.088556181221264,-1 -8.141689889954023,-8 -12.212534834931034,-11 c-4.070844944977011,-1 1.0177112362442533,7 -2.0354224724885057,8 c-4.070844944977011,0 -5.088556181221264,-8 -9.159401126198276,-8 c-4.070844944977011,1 1.0177112362442533,6 -2.0354224724885057,7 c-33.584470796060344,-30 -43.76158315850287,-21 -43.76158315850287,-36 c-8.141689889954023,10 -10.177112362442529,-2 -19.336513488640804,3 c-4.070844944977011,-5 -6.106267417465517,-10 -2.0354224724885057,-17 c-1.0177112362442533,-5 -7.12397865370977,5 -11.194823598686781,3 c-1.353555944204857,-6 1.0177112362442533,-12.67 7.12397865370977,-20 c-6.788133945749167,6.67 -14.24795730741954,10 -22.389647197373563,10 c1.0177112362442533,-10 -1.0177112362442533,-6.5 5.088556181221264,-16 c-6.106267417465517,7.5 -13.230246071175287,8 -19.336513488640804,6 c-4.50846077656204,-2.1 4.070844944977011,-8 2.0354224724885057,-11.5 c-8.141689889954023,0 -23.163107736919198,-0.3000000000000003 -24.42506966986207,-3.5 c-3.317738630156264,-8.4 8.141689889954023,-19 4.070844944977011,-25 c-3.175259057082069,-4.67 -12.212534834931034,9 -15.265668543663793,-3 c0,-12 -4.7527114732606615,-17 -14.24795730741954,-15 c-8.823556418237672,-1.33 -19.672358196601405,-1.33 -32.56675955981609,0 c-19.336513488640804,2 -27.478203378594827,-5 -59.027251702166666,-5 c10.177112362442529,-5 9.159401126198276,-13 27.478203378594827,-13 c-21.37193596112931,-3 -10.177112362442529,-10 -45.79700563099138,-13 c30.531337087327586,-8 32.56675955981609,0 54.956406757189654,7 c69.2043640646092,-7 22.389647197373563,-15 95.66485620695977,-22 c14.24795730741954,-2 36.6376045047931,-4 59.027251702166666,2 c5.088556181221264,-2 6.106267417465517,-5 15.265668543663793,-6 c8.141689889954023,0 12.894401363214683,3.67 14.24795730741954,11 c10.858978890726178,0.7200000000000006 16.283379779908046,1.7200000000000002 16.283379779908046,3 z" id="svg_14" stroke="#ffffff" stroke-opacity="1" stroke-linecap="round" filter="url(#f001)"/>
      <path fill="#000" d="M751.9026356039382,309.03 c32.56675955981609,-14 56.99182922967816,-26 91.59401126198276,-40 c20.354224724885057,-6 37.655315741037356,-5 56.99182922967816,-8 c28.49591461483908,0 17.3010910161523,-8 55.97411799343391,-3 c8.141689889954023,-1 11.143938036874568,-7.5 19.336513488640804,-7 c8.823556418237672,0 13.566090779135891,2.66 14.24795730741954,8 l26.460492142350574,5 l-24.42506966986207,5 c-2.7172890007721553,5.33 -8.141689889954023,8.33 -16.283379779908046,9 c-12.212534834931034,12 -11.194823598686781,18 -29.513625851083333,21 c22.389647197373563,13 23.407358433617816,17 65.13351911963218,38 c13.230246071175287,11 13.230246071175287,15 17.3010910161523,31 c4.070844944977011,15.98 14.309019981594195,25.74 21.37193596112931,35 c26.460492142350574,46 23.407358433617816,59 45.79700563099138,80 c-11.194823598686781,-1 -23.407358433617816,-8 -28.49591461483908,-13 c-4.070844944977011,-1 -3.0531337087327586,5 -3.0531337087327586,8 c-6.106267417465517,-2 -8.141689889954023,-15 -16.283379779908046,-13 c-3.521280877405115,0 4.070844944977011,5 0,13 c-13.230246071175287,-5 -14.24795730741954,-7 -16.283379779908046,-13 c-3.0531337087327586,-4 -7.12397865370977,-11 -3.0531337087327586,-12 c-2.0354224724885057,8 0,12 -6.106267417465517,12 c-5.088556181221264,-10 -7.12397865370977,-3 -11.194823598686781,-12 c-8.141689889954023,-14 -17.3010910161523,-12 -17.3010910161523,-29 c-4.070844944977011,0 -7.12397865370977,4 -10.177112362442529,9 c-3.0531337087327586,-4 0,-9 -1.0177112362442533,-12 c-2.0354224724885057,0.6600000000000009 -4.406689652937614,1.6600000000000001 -7.12397865370977,3 c-2.0354224724885057,-12.67 -2.0354224724885057,-21.67 0,-27 c-8.141689889954023,2 -4.070844944977011,6 -15.265668543663793,10 c-5.088556181221264,-6 -4.070844944977011,-12 -2.0354224724885057,-21 c-5.088556181221264,6 -5.088556181221264,-3 -12.212534834931034,2 c-9.159401126198276,-9 -10.177112362442529,-18 -25.44278090610632,-18 c-5.088556181221264,-12 -3.0531337087327586,-20 -11.194823598686781,-22 c-3.2872072930689367,0.8600000000000007 -4.070844944977011,10 -6.106267417465517,7 s-2.0354224724885057,-10 -5.088556181221264,-12 c-2.0354224724885057,-3 -6.106267417465517,6 -9.159401126198276,3 c0,-5 -2.0354224724885057,-11 -6.106267417465517,-14 c-3.0531337087327586,-4 -5.088556181221264,0 -10.177112362442529,3 c-2.0354224724885057,-5 -2.0354224724885057,-9 -1.0177112362442533,-14 c-4.070844944977011,-1 -14.24795730741954,5 -12.212534834931034,-2 c0,-7 -4.070844944977011,-4 -8.141689889954023,-4 c-5.088556181221264,0 1.0177112362442533,-5 -1.0177112362442533,-6 c-5.088556181221264,-2 -13.230246071175287,2 -21.37193596112931,6 c-5.088556181221264,-2 4.070844944977011,-10 0,-10 c-31.54904832357184,-1 -38.67302697728161,7 -77.34605395456322,4 z" id="svg_15" stroke="#ffffff" stroke-opacity="1" stroke-linecap="round" filter="url(#f001)"/>
      <path fill="#000" d="M1401.2024043277715,264.1 l-18.31880225239655,-3 c-2.0354224724885057,-6 -5.424400889181867,-9.35 -10.177112362442529,-10 c-14.24795730741954,-1 -17.3010910161523,7 -22.389647197373563,10 c-21.37193596112931,-3 -19.336513488640804,-1 -35.61989326854885,0 c-30.531337087327586,-5 -36.6376045047931,4 -50.88556181221264,7 c-36.6376045047931,5 -33.584470796060344,9 -48.85013933972414,16 c-34.6021820323046,18 -41.72616068601437,19 -76.32834271831896,29 c6.788133945749167,0.6500000000000008 14.24795730741954,0 22.389647197373563,-2 c-14.92982383570319,4 -21.37193596112931,6.32 -19.336513488640804,7 c31.54904832357184,-5 29.53398007580822,4.23 52.92098428470115,0 c11.194823598686781,-3 10.177112362442529,-9 13.230246071175287,-12 c2.0354224724885057,7 1.0177112362442533,7 2.0354224724885057,13 c16.283379779908046,-3 21.37193596112931,-2 30.531337087327586,-2 c3.0531337087327586,4 -3.724823124653967,8.6 0,10 c4.070844944977011,-1.35 9.49524583415888,-2.68 16.283379779908046,-4 c-4.070844944977011,4.65 -5.770422709504914,8.32 -5.088556181221264,11 c15.265668543663793,2 12.212534834931034,4 24.42506966986207,1 c-11.194823598686781,4 -11.194823598686781,4 -16.283379779908046,10 c16.283379779908046,3 14.24795730741954,1 24.42506966986207,2 c-4.070844944977011,4 -3.0531337087327586,8 -1.0177112362442533,11 c6.106267417465517,-3 9.69878808140773,-4.5 12.212534834931034,-3 c-3.0531337087327586,3.44 -5.088556181221264,7 -2.0354224724885057,9 c10.177112362442529,-2 12.619619329428737,-5.28 15.265668543663793,-2 c-3.0531337087327586,8 0,11 1.0177112362442533,22 c5.088556181221264,0 10.177112362442529,-2 15.265668543663793,-4 c1.0177112362442533,8 -3.0531337087327586,8 -3.0531337087327586,16 c6.106267417465517,3 13.230246071175287,-3 17.3010910161523,-1 c-7.12397865370977,4 -7.12397865370977,6 -8.141689889954023,9 c7.12397865370977,3 6.106267417465517,2 14.24795730741954,0 c-5.424400889181867,4 -7.12397865370977,7.65 -5.088556181221264,11 c5.424400889181867,-3.35 8.477534597914627,-3.35 9.159401126198276,0 c-2.0354224724885057,6 0,7 1.0177112362442533,15 c10.177112362442529,-5 10.177112362442529,2 21.37193596112931,5 c6.0757360803781895,3.27 6.51335191196322,10.54 11.194823598686781,14 c9.159401126198276,6.74 20.354224724885057,9 19.336513488640804,9 s-9.159401126198276,-11 -5.088556181221264,-10 c3.3889784166933623,4 7.80584518199342,8.32 13.230246071175287,13 c0,-8 -0.6818665282836507,-13.68 -2.0354224724885057,-17 c9.159401126198276,14 12.212534834931034,12 28.49591461483908,23 c3.0531337087327586,-13 -6.106267417465517,-18 -15.265668543663793,-28 c19.336513488640804,22 19.336513488640804,20 30.531337087327586,24 c-24.42506966986207,-30 -20.354224724885057,-26 -29.513625851083333,-53 c-14.24795730741954,-26 -24.42506966986207,-61 -39.69073821352586,-75 c-18.31880225239655,-12 -19.336513488640804,-17 -38.67302697728161,-26 c-3.3889784166933623,-4.68 -7.459823361670373,-8 -12.212534834931034,-10 c12.212534834931034,-2 21.70778066908991,-5.68 28.49591461483908,-11 c2.0354224724885057,-5 7.12397865370977,-5 11.194823598686781,-9 c6.106267417465517,-1.35 9.841267654481925,-4.35 11.194823598686781,-9 l18.31880225239655,-6 z" id="svg_16" stroke="#ffffff" stroke-opacity="1" stroke-linecap="round" filter="url(#f001)"/>
      <path fill="#000" d="M1792.0035190455646,266 c-11.194823598686781,-1 -12.212534834931034,-4 -24.42506966986207,-6 c-3.0531337087327586,-6 -4.070844944977011,-5 -10.177112362442529,-7 c-14.24795730741954,0 -21.37193596112931,7 -29.513625851083333,12 c-24.42506966986207,-3 -31.54904832357184,-1 -44.779294394747126,2 c-46.81471686723563,12 -43.76158315850287,12 -71.2397865370977,23 c-46.81471686723563,27 -39.69073821352586,30 -59.027251702166666,40 c23.407358433617816,6 31.54904832357184,-3 47.832428103479884,-7 c-6.788133945749167,2.67 -8.823556418237672,6 -6.106267417465517,10 c6.788133945749167,-2.67 11.194823598686781,-3.67 13.230246071175287,-3 c-5.088556181221264,2 -9.871798991569252,10.57 -5.088556181221264,10 c27.478203378594827,-2 31.24373495269856,-14.27 46.81471686723563,-15 c-4.070844944977011,5 -6.106267417465517,8 -4.070844944977011,13 c12.212534834931034,-3 11.194823598686781,-2 18.31880225239655,-4 c-2.0354224724885057,6 -3.0531337087327586,6 0,15 c8.65054550807615,2 13.230246071175287,-5 13.230246071175287,-5 c4.070844944977011,4 0,11 0,20 c11.194823598686781,0 11.194823598686781,2 15.265668543663793,0 c-2.0354224724885057,8 2.0354224724885057,8 5.088556181221264,14 c4.070844944977011,-8 7.12397865370977,-5 14.24795730741954,-12 c-2.0354224724885057,13 5.088556181221264,12 6.106267417465517,21 c10.177112362442529,-9 11.194823598686781,-11 13.230246071175287,-21 c-4.070844944977011,15 2.0354224724885057,17 5.088556181221264,28 c4.070844944977011,-7 7.12397865370977,-7 8.141689889954023,-16 c1.0177112362442533,5 4.050490720252128,7.87 5.088556181221264,6 c3.0531337087327586,-10 3.37880130433092,-8.12 4.070844944977011,-6 c-3.0531337087327586,13 2.0354224724885057,16 5.088556181221264,27 c7.12397865370977,-12 5.088556181221264,-18 5.088556181221264,-19 c2.0354224724885057,15 15.265668543663793,8 28.49591461483908,33 c4.070844944977011,-14 -16.283379779908046,-38 -23.407358433617816,-73 c-4.070844944977011,-23 -3.0531337087327586,-28 -14.24795730741954,-43 c-3.0531337087327586,-7 -10.177112362442529,-8 -13.230246071175287,-7 c8.141689889954023,-4 7.12397865370977,-8 12.212534834931034,-15 c15.265668543663793,-2 11.194823598686781,-5 15.265668543663793,-10 c-1.0177112362442533,0 5.088556181221264,-4 23.407358433617816,-5 z" id="svg_17" stroke="#ffffff" stroke-opacity="1" stroke-linecap="round" filter="url(#f001)"/>
      <path fill="#000" d="M2167.192943399371,280.36 c0,-3 -11.194823598686781,-6 -20.354224724885057,-6 c-1.3637330565672987,-2.67 -3.7350002370164077,-5 -7.12397865370977,-7 c-5.43457800154431,-2.67 -12.558556655254081,-2.67 -21.37193596112931,0 c-8.141689889954023,1 -16.283379779908046,-13 -8.141689889954023,-26 c7.12397865370977,-3 10.177112362442529,-9 11.194823598686781,-14 c-8.141689889954023,-4 -11.194823598686781,-5 -22.389647197373563,-4 c-66.15123035587644,4 -86.5054550807615,28 -111.94823598686781,50 c-8.141689889954023,7 10.177112362442529,5 18.31880225239655,5 c-42.74387192225862,0 -79.38147642705172,41 -73.2752090095862,37 s16.283379779908046,6 35.61989326854885,-11 c2.0354224724885057,-1 -7.12397865370977,5 -15.265668543663793,15 c21.37193596112931,-3 21.37193596112931,-6 39.69073821352586,-4 c-2.0354224724885057,7 3.6637604504793106,7.22 9.159401126198276,8 c4.406689652937614,0.6200000000000007 9.362943373447125,-0.44000000000000034 15.265668543663793,0 c12.75192179014049,1.4 13.230246071175287,-1 18.31880225239655,-1 c6.106267417465517,0 5.444755113906752,0.6000000000000006 9.159401126198276,0 c9.159401126198276,-2 7.12397865370977,-3 10.177112362442529,-7 c-3.0531337087327586,8 1.0177112362442533,11 6.106267417465517,21 c7.12397865370977,-6 6.106267417465517,-14 6.106267417465517,-19 c0,13 -1.0177112362442533,9 2.0354224724885057,17 c6.106267417465517,-5 6.106267417465517,-4 8.141689889954023,-12 c-3.0531337087327586,10 -1.0177112362442533,17 3.0531337087327586,28 c5.088556181221264,0 6.961144855910689,-4.66 10.177112362442529,-3 c0,5 0,3 6.106267417465517,13 c5.088556181221264,-5 2.0354224724885057,3 7.12397865370977,-8 c-1.0177112362442533,10 4.070844944977011,4 10.177112362442529,18 c5.088556181221264,-10 3.0531337087327586,-14 -1.0177112362442533,-23 c6.106267417465517,13 8.141689889954023,12 13.230246071175287,19 c2.0354224724885057,-19 -1.0177112362442533,-23 -7.12397865370977,-36 c3.0531337087327586,-19 -6.106267417465517,-20 -5.088556181221264,-33.5 c8.141689889954023,-10.5 15.265668543663793,2 24.42506966986207,-6.5 c7.12397865370977,-1 4.070844944977011,-4 9.159401126198276,-7 c8.141689889954023,-5 19.336513488640804,1 20.354224724885057,-3 z" id="svg_18" stroke="#ffffff" stroke-opacity="1" stroke-linecap="round" filter="url(#f001)"/>
      <path fill="#000" d="M2539.0035664488464,288.8399999999999 c-6.106267417465517,-3 -7.12397865370977,-1 -16.283379779908046,-3 c1.0177112362442533,-5 -4.742534360898219,-10 -11.194823598686781,-10 c-9.322234923997355,0 -9.668256744320402,5.2 -21.37193596112931,8 c-9.159401126198276,2.2 -12.92493270030201,3.03 -18.31880225239655,-2 c-24.42506966986207,-15 -11.194823598686781,-19 -32.56675955981609,-44 c-9.159401126198276,-7 -12.212534834931034,-11 -4.070844944977011,-21 c13.230246071175287,-14 17.3010910161523,-22 17.3010910161523,-32 c-4.070844944977011,-7 -86.5054550807615,-3 -115.00136969560057,34 c5.149618855395919,1.15 17.09754876890345,-6.7 21.01573702844382,-6 c4.427043877662499,1 -18.980314555955314,13 -9.820913429757042,11 c9.159401126198276,-2 15.265668543663793,-7 21.37193596112931,-7 c2.7172890007721553,-0.05000000000000006 -2.0354224724885057,2 -3.0531337087327586,7 c3.846948473003276,0.9 9.973570115193679,-1.85 16.283379779908046,-3 c3.58234355157977,-0.6500000000000008 8.039918766329599,0.34000000000000047 10.177112362442529,0 c-4.070844944977011,3 -10.177112362442529,1 -20.354224724885057,17 c6.106267417465517,5.5 14.24795730741954,-1.5 20.354224724885057,-1.5 c-3.0531337087327586,5.5 -11.194823598686781,2.5 -15.265668543663793,20.5 c2.0354224724885057,4 11.194823598686781,-6 9.159401126198276,-2 c0,4 -7.12397865370977,2 -9.159401126198276,18 c6.106267417465517,0 8.141689889954023,-7 9.159401126198276,-2 c-2.0354224724885057,3 -5.088556181221264,3 -5.088556181221264,9 c3.0531337087327586,3 9.159401126198276,-4 11.194823598686781,-4 c-1.0177112362442533,2 -6.106267417465517,2 -6.106267417465517,10 c-38.67302697728161,9 -49.86785057596839,18 -69.2043640646092,30 c7.12397865370977,4.9 23.407358433617816,-5 25.44278090610632,-1 c-1.485858404916609,3.22 -11.194823598686781,5.9 -28.49591461483908,11 c17.3010910161523,2 31.54904832357184,2 43.40538422581738,-5.1 c10.533311295128016,1.1 18.898897657055773,-1.9 21.7281348938148,-1.9 c4.070844944977011,6 0,13 7.12397865370977,15 c3.0531337087327586,-5 8.141689889954023,-12 9.159401126198276,-15 c3.0531337087327586,-2 -5.088556181221264,11 3.0531337087327586,13 c9.159401126198276,0 19.336513488640804,7 36.6376045047931,7 c18.31880225239655,0 22.389647197373563,-6 42.74387192225862,-13 c12.212534834931034,-1 20.354224724885057,-5 25.44278090610632,-18 c3.0531337087327586,-8 9.159401126198276,-4 18.31880225239655,-13 c2.0354224724885057,-2 12.212534834931034,-3 16.283379779908046,-6 z" id="svg_19" stroke="#ffffff" stroke-opacity="1" stroke-linecap="round" filter="url(#f001)"/>
      <path fill="#000" d="M2919.627568804197,285.74 c-0.5292098428470111,-2.35 -8.141689889954023,-3 -20.354224724885057,-5 c-6.7372483839369535,-3.1 -7.816022294355862,-9 -14.24795730741954,-9 c-13.230246071175287,0 -7.968678979792499,6.16 -21.37193596112931,9 c-7.836376519080748,1.6700000000000008 -15.265668543663793,2 -20.354224724885057,0 s-6.431935013063678,-3.7 -10.177112362442529,-6 c-19.540055735889652,-11.9 -10.350123272604051,0.25 -19.50952439880233,-20 c-10.726676430014424,-12 -10.787739104189079,-24.55 -6.950967743548246,-42 c0.9871798991569253,-4.5 2.310204506274454,-8.15 4.070844944977011,-11 c6.106267417465517,-9.83 12.894401363214683,-30.6 11.194823598686781,-45 c-1.4247957307419539,-12.16 -11.194823598686781,-14 -27.478203378594827,-17 c-21.37193596112931,-4 -33.584470796060344,-5 -59.027251702166666,-2 c-9.159401126198276,8 -21.37193596112931,5 -33.584470796060344,21 c9.159401126198276,-1 7.12397865370977,-3 14.24795730741954,3 c8.141689889954023,-4 15.754169937061034,-1.3 16.283379779908046,-1 c7.286812451508851,4.13 -3.602697776304655,3.73 1.0177112362442533,6 c6.106267417465517,0 2.0354224724885057,4 0,9 c5.088556181221264,-0.5 8.141689889954023,-1 6.106267417465517,4 c4.477929439474713,3.22 8.508065935001953,-3.24 9.159401126198276,1 c0.8752316631700582,5.76 -11.907221464057757,9.4 -9.159401126198276,17 c18.31880225239655,3 20.354224724885057,5 22.389647197373563,7 c-4.070844944977011,1 3.0531337087327586,2 -26.460492142350574,11 c3.0531337087327586,10 14.24795730741954,6 15.265668543663793,16 c0,7 -9.159401126198276,4 -12.212534834931034,17 c12.212534834931034,2 9.159401126198276,6 23.407358433617816,6 c-5.088556181221264,0 -18.31880225239655,4 -26.460492142350574,12 c9.159401126198276,2 6.106267417465517,6 14.24795730741954,7 c7.12397865370977,3 6.106267417465517,3.36 4.070844944977011,7 c-6.615123035587644,11.86 -5.088556181221264,15 -20.354224724885057,23 s-26.765805513223853,15.78 -35.61989326854885,22 c-4.712003023810891,3.3200000000000003 -7.612480047107012,8.23 -11.194823598686781,12 c12.212534834931034,-2 12.212534834931034,-3 15.265668543663793,-2 c2.0354224724885057,4 1.0177112362442533,-3 0,11 c6.106267417465517,-5 16.283379779908046,-12 22.389647197373563,-16 c5.088556181221264,0 13.230246071175287,-3 17.3010910161523,0 c5.088556181221264,0 0,-7 0,-8.96 c0,-1.96 3.54163510213,5.8 5.088556181221264,3.96 c5.088556181221264,-6 4.070844944977011,-9 3.0531337087327586,-14 c4.070844944977011,3 1.0177112362442533,10.9 6.106267417465517,12 c19.336513488640804,6 21.37193596112931,5 42.74387192225862,-1 c1.2212534834931033,-0.07 3.002248146920546,-0.92 4.376158315850287,-0.9600000000000006 c1.2212534834931033,1.42 0.7123978653709779,3 3.765531574103736,3.96 c1.597806640903477,-2.35 5.017316394684166,-3.06 6.950967743548246,-3.1 c0.5292098428470111,0 -0.24425069669862087,-0.93 0,-0.8600000000000007 c10.177112362442529,3 17.474101926313825,3.96 32.739770469977614,0.9600000000000006 c13.230246071175287,-8 24.42506966986207,-5 35.61989326854885,-17 c14.24795730741954,-6 14.24795730741954,-10 17.3010910161523,-16 c4.070844944977011,-3 9.159401126198276,0 20.354224724885057,-4 z" id="svg_20" stroke="#ffffff" stroke-opacity="1" stroke-linecap="round" filter="url(#f001)"/>
      <path fill="#000" d="M3310.42868352199,296 c-8.141689889954023,-3 -7.12397865370977,-2 -17.3010910161523,-4 c-7.734605395456321,-3.2800000000000002 -5.088556181221264,-11 -21.37193596112931,-13 c-16.385150903532473,1.03 -15.265668543663793,14 -31.54904832357184,13 c-10.614728194027556,-0.6500000000000008 -13.230246071175287,-7 -21.37193596112931,-11 s-13.230246071175287,-5 -19.336513488640804,-12 c-13.230246071175287,-42 -1.292493270030201,-9.56 -3.0531337087327586,-59 c-0.2747820337859484,-7.5600000000000005 -6.106267417465517,-44 -1.0177112362442533,-54 c8.141689889954023,-3 4.925722383422183,-13.8 0,-22 c-32.56675955981609,-34 -40.932345921743845,-58.03 -61.06267417465517,-79 c-4.070844944977011,-1 5.088556181221264,12 -2.0354224724885057,7 c-8.955858878949426,-5.08 -7.12397865370977,-14 -23.407358433617816,-22 c1.0177112362442533,5 4.070844944977011,12 2.0354224724885057,15 c-5.088556181221264,-3 -14.24795730741954,-23 -20.354224724885057,-23 c1.0177112362442533,4 8.141689889954023,11 8.141689889954023,23 c0,4 -14.24795730741954,-6 -9.159401126198276,-1 s7.12397865370977,13 9.159401126198276,19 c7.378406462770833,13.18 22.389647197373563,23 22.389647197373563,22 c-3.0531337087327586,-1 -17.3010910161523,-12 -26.460492142350574,-11 c2.0354224724885057,5 8.141689889954023,7 10.177112362442529,17 c-2.0354224724885057,2 0,3 -8.141689889954023,0 c4.070844944977011,19 14.24795730741954,28 35.61989326854885,41 c2.646049214235058,4.24 -11.296594722311205,-4.18 -14.24795730741954,-1 c-2.646049214235058,2.8200000000000003 1.6995777645279042,8.6 5.088556181221264,15 c9.332412036359798,17.6 18.64446984799471,18.92 20.354224724885057,30 c-1.0177112362442533,4 -9.94303877810635,-1.26 -14.24795730741954,2 c-2.310204506274454,1.7400000000000002 4.834128372160201,5.74 4.070844944977011,10 c-0.76328342718319,4.24 -9.38329759817201,1.6800000000000006 -8.141689889954023,6 c2.5239238658857475,2.98 -2.0354224724885057,12 -1.0177112362442533,17 s4.070844944977011,6 4.070844944977011,11 s7.12397865370977,-2 8.141689889954023,6 c5.088556181221264,4 -1.0177112362442533,4 -8.141689889954023,12 c5.088556181221264,5 10.177112362442529,4 8.141689889954023,14 s-7.12397865370977,6 -12.212534834931034,12 c-5.088556181221264,7 -3.0531337087327586,11 -10.177112362442529,17 c-9.159401126198276,8 -15.265668543663793,4 -31.54904832357184,16 c-13.230246071175287,7 -14.24795730741954,2 -30.531337087327586,13 c18.31880225239655,2 36.6376045047931,12 69.2043640646092,5 c5.088556181221264,2 -5.088556181221264,5 -2.0354224724885057,7 c14.24795730741954,1 16.283379779908046,3 23.407358433617816,0 c-4.070844944977011,3 -10.808093328913966,8.7 -7.12397865370977,9 c8.681076845163478,0.7400000000000007 23.79408870339063,-0.9500000000000006 30.531337087327586,0 c8.548774384451725,1.2 12.975818262114224,5 27.478203378594827,5 c7.836376519080748,0 16.53780758896911,-8.18 21.37193596112931,-7 c7.429292024583045,1.8 6.106267417465517,2.93 17.3010910161523,0 c19.672358196601405,-5.15 24.42506966986207,-9 39.69073821352586,-19 c8.141689889954023,-12 13.230246071175287,-9 20.354224724885057,-21 c11.194823598686781,-2 18.31880225239655,-2 18.31880225239655,-5 z" id="svg_21" stroke="#ffffff" stroke-opacity="1" stroke-linecap="round" filter="url(#f001)"/>
      <path fill="#000" d="M3668.866580927215,284 c0,-2.56 -5.088556181221264,-4 -13.230246071175287,-7 c-4.325272754038075,-3.13 0,-8 -10.177112362442529,-10 c-17.3010910161523,0 -11.22535493577411,8.98 -21.37193596112931,12 c-10.177112362442529,-1 -9.159401126198276,-2 -21.37193596112931,1 c-4.22350163041365,1.04 -3.969073821352586,-10.8 -6.106267417465517,-13 c-3.022602371645431,-3.06 -5.088556181221264,-3 -10.177112362442529,-8 c-3.0531337087327586,-11 6.106267417465517,-24 3.0531337087327586,-45 c-1.3637330565672987,-9.32 -4.762888585623103,-21.56 -9.159401126198276,-33 c-2.4933925287984198,-13.1 -2.0354224724885057,-10 -13.230246071175287,-23 c-21.37193596112931,-28 -37.655315741037356,-37 -47.832428103479884,-67 c-5.047847731771494,-4.5600000000000005 -0.6920436406460929,12.44 -5.088556181221264,11 c-7.816022294355862,-2.56 -15.672753038161495,-19 -19.336513488640804,-19 c-2.951362585108333,0 7.6328342718318964,17.9 4.070844944977011,23 c-3.0531337087327586,4.4 -17.3010910161523,-7.67 -17.3010910161523,-5 c0,3.33 8.141689889954023,16 15.265668543663793,19 c-4.070844944977011,4 -9.668256744320402,-4.6 -11.194823598686781,-1 c7.12397865370977,9 1.0177112362442533,11 6.106267417465517,24 c5.872193833129338,12.05 11.194823598686781,8 16.283379779908046,18 c-3.6841146752041953,4.17 -24.933925287984195,-6.8 -26.460492142350574,-3 c-1.0380654609691378,2.5300000000000002 9.871798991569252,2.7 17.3010910161523,10 c6.106267417465517,6 1.8318802252396553,13.48 6.106267417465517,16 c5.088556181221264,3 2.0354224724885057,6 8.141689889954023,13 s10.177112362442529,-2 8.141689889954023,8 c-0.9566485620695976,4.66 -4.070844944977011,4.34 -4.070844944977011,9 c0,5.34 8.141689889954023,-1 6.106267417465517,5 c0,2.5700000000000003 -4.070844944977011,4 -6.106267417465517,8 c0,0.7200000000000006 7.714251170731436,-1.47 8.141689889954023,1 c1.0991281351437932,6.53 -7.358052238045949,11.8 -4.070844944977011,17 c3.327915742518707,5.3 12.212534834931034,4 17.3010910161523,3 c-5.088556181221264,4 -13.230246071175287,3.95 -13.230246071175287,9 c0,9.45 10.177112362442529,13 4.070844944977011,18 c2.0354224724885057,5 -5.088556181221264,9 -4.070844944977011,13 s5.261567091382788,8.47 10.177112362442529,10 c3.2973844054313797,1.03 9.159401126198276,2 6.106267417465517,3 c-6.106267417465517,2 -7.12397865370977,-1 -12.212534834931034,3 c-4.325272754038075,0 -2.0354224724885057,-6 -10.177112362442529,-4 c-24.42506966986207,4 -61.06267417465517,20 -74.29292024583046,34 c-2.0354224724885057,3 12.212534834931034,-3 21.37193596112931,-4 c-8.141689889954023,3 -20.354224724885057,7 -5.088556181221264,6 c11.194823598686781,1 28.49591461483908,0 58.00954046592241,-5 c21.840083129801666,-0.6600000000000009 17.3010910161523,7 39.69073821352586,2 c11.194823598686781,3 28.49591461483908,6 43.76158315850287,-5 c14.24795730741954,-2 15.85594106068546,-9.85 33.584470796060344,-23 c6.106267417465517,-2 11.194823598686781,-11 14.24795730741954,-17 c7.938147642705172,-3.5300000000000002 12.212534834931034,-1 18.31880225239655,-4 z" id="svg_22" stroke="#ffffff" stroke-opacity="1" stroke-linecap="round" filter="url(#f001)"/>
    </g>
  </g><g fill="none" fill-rule="evenodd" class="" stroke="#ffffff" stroke-opacity="1" id="svg_28" filter="url(#f009)">
    <g id="svg_30" stroke="#ffffff" stroke-opacity="1" filter="url(#f009)">
      <path class="cell-container" stroke="#ffffff" d="M5.5,1115.5 h359 v509 H5.5 z" id="svg_3" stroke-opacity="1" filter="url(#f009)"/>
      <path class="cell-container" stroke="#ffffff" d="M364.5,1115.5 h359 v509 h-359 z" id="svg_4" stroke-opacity="1" filter="url(#f009)"/>
      <path class="cell-container" stroke="#ffffff" d="M723.5,1115.5 h359 v509 h-359 z" id="svg_5" stroke-opacity="1" filter="url(#f009)"/>
      <path class="cell-container" stroke="#ffffff" d="M1082.5,1115.5 h370 v509 h-370 z" id="svg_6" stroke-opacity="1" filter="url(#f009)"/>
      <path class="cell-container" stroke="#ffffff" d="M1453.5,1115.5 h370 v509 h-370 z" id="svg_7" stroke-opacity="1" filter="url(#f009)"/>
      <path class="cell-container" stroke="#ffffff" d="M1823.5,1115.5 h370 v509 h-370 z" id="svg_8" stroke-opacity="1" filter="url(#f009)"/>
      <path class="cell-container" stroke="#ffffff" d="M2194.5,1115.5 h370 v509 h-370 z" id="svg_9" stroke-opacity="1" filter="url(#f009)"/>
      <path class="cell-container" stroke="#ffffff" d="M2564.5,1115.5 h370 v509 h-370 z" id="svg_10" stroke-opacity="1" filter="url(#f009)"/>
      <path class="cell-container" stroke="#ffffff" d="M2935.5,1115.5 h370 v509 h-370 z" id="svg_11" stroke-opacity="1" filter="url(#f009)"/>
      <path class="cell-container" stroke="#ffffff" d="M3305.5,1115.5 h370 v509 h-370 z" id="svg_12" stroke-opacity="1" filter="url(#f009)"/>
      <path fill="#000" d="M56,1403.38 c13.33,-5.34 35.33,-9.34 66,-12 c0,0 18.44,-9.95 55,-15 c1.04,-0.15000000000000013 7.5,-8 36,-13 c16,0 21,-3.88 30,5 c3.5300000000000002,-13.53 19.13,-16.58 29,-15 c6.9,1.1 11.3,5.93 12,8 c4,12 21,5 30,12 c-23,6 -23,7 -32,11 c-16,14 -31,31 -47,31 c-16,4 -32.83,5.33 -50.5,4 c-1,4 -3.5,6.66 -7.5,8 c-6,2 -1,-9 -4,-12 s-3,10 -17,18 c-1,-14 -5,-10 -5,-18 s4,13 -17,18 c-14,3.33 -31.67,4 -53,2 c26,-8.67 41.33,-16.34 46,-23 c-5,0 -18,-1 -21,-9 c-14,-4.5 -30.67,-4.5 -50,0 z" id="svg_13" stroke="#ffffff" stroke-opacity="1" filter="url(#f009)"/>
      <path fill="#000" d="M644,1388 c0,2.07 -10,3 -16,5 c-9,1 -8,8 -14,7 s-5,8 -19,14 c2,11 21,9 36,19 c29,30.62 18,19 37,63 c14,28 18,30 27,57 c-1,1 -11,-1 -14,-7 c-1,5 -5,1 -4,7 c-5,-1 -8,-8 -12,-11 c-4,-1 1,7 -2,8 c-4,0 -5,-8 -9,-8 c-4,1 1,6 -2,7 c-33,-30 -43,-21 -43,-36 c-8,10 -10,-2 -19,3 c-4,-5 -6,-10 -2,-17 c-1,-5 -7,5 -11,3 c-1.33,-6 1,-12.67 7,-20 c-6.67,6.67 -14,10 -22,10 c1,-10 -1,-6.5 5,-16 c-6,7.5 -13,8 -19,6 c-4.43,-2.1 4,-8 2,-11.5 c-8,0 -22.76,-0.30000000000000027 -24,-3.5 c-3.26,-8.4 8,-19 4,-25 c-3.12,-4.67 -12,9 -15,-3 c0,-12 -4.67,-17 -14,-15 c-8.67,-1.33 -19.33,-1.33 -32,0 c-19,2 -27,-5 -58,-5 c10,-5 9,-13 27,-13 c-21,-3 -10,-10 -45,-13 c30,-8 32,0 54,7 c68,-7 22,-15 94,-22 c14,-2 36,-4 58,2 c5,-2 6,-5 15,-6 c8,0 12.67,3.67 14,11 c10.67,0.7200000000000005 16,1.7200000000000002 16,3 z" id="svg_14" stroke="#ffffff" stroke-opacity="1" filter="url(#f009)"/>
      <path fill="#000" d="M734,1414.03 c32,-14 56,-26 90,-40 c20,-6 37,-5 56,-8 c28,0 17,-8 55,-3 c8,-1 10.95,-7.5 19,-7 c8.67,0 13.33,2.66 14,8 l26,5 l-24,5 c-2.67,5.33 -8,8.33 -16,9 c-12,12 -11,18 -29,21 c22,13 23,17 64,38 c13,11 13,15 17,31 c4,15.98 14.06,25.74 21,35 c26,46 23,59 45,80 c-11,-1 -23,-8 -28,-13 c-4,-1 -3,5 -3,8 c-6,-2 -8,-15 -16,-13 c-3.46,0 4,5 0,13 c-13,-5 -14,-7 -16,-13 c-3,-4 -7,-11 -3,-12 c-2,8 0,12 -6,12 c-5,-10 -7,-3 -11,-12 c-8,-14 -17,-12 -17,-29 c-4,0 -7,4 -10,9 c-3,-4 0,-9 -1,-12 c-2,0.6600000000000008 -4.33,1.6600000000000001 -7,3 c-2,-12.67 -2,-21.67 0,-27 c-8,2 -4,6 -15,10 c-5,-6 -4,-12 -2,-21 c-5,6 -5,-3 -12,2 c-9,-9 -10,-18 -25,-18 c-5,-12 -3,-20 -11,-22 c-3.23,0.8600000000000005 -4,10 -6,7 s-2,-10 -5,-12 c-2,-3 -6,6 -9,3 c0,-5 -2,-11 -6,-14 c-3,-4 -5,0 -10,3 c-2,-5 -2,-9 -1,-14 c-4,-1 -14,5 -12,-2 c0,-7 -4,-4 -8,-4 c-5,0 1,-5 -1,-6 c-5,-2 -13,2 -21,6 c-5,-2 4,-10 0,-10 c-31,-1 -38,7 -76,4 z" id="svg_15" stroke="#ffffff" stroke-opacity="1" filter="url(#f009)"/>
      <path fill="#000" d="M1372,1369.1 l-18,-3 c-2,-6 -5.33,-9.35 -10,-10 c-14,-1 -17,7 -22,10 c-21,-3 -19,-1 -35,0 c-30,-5 -36,4 -50,7 c-36,5 -33,9 -48,16 c-34,18 -41,19 -75,29 c6.67,0.6500000000000007 14,0 22,-2 c-14.67,4 -21,6.32 -19,7 c31,-5 29.02,4.23 52,0 c11,-3 10,-9 13,-12 c2,7 1,7 2,13 c16,-3 21,-2 30,-2 c3,4 -3.66,8.6 0,10 c4,-1.35 9.33,-2.68 16,-4 c-4,4.65 -5.67,8.32 -5,11 c15,2 12,4 24,1 c-11,4 -11,4 -16,10 c16,3 14,1 24,2 c-4,4 -3,8 -1,11 c6,-3 9.53,-4.5 12,-3 c-3,3.44 -5,7 -2,9 c10,-2 12.4,-5.28 15,-2 c-3,8 0,11 1,22 c5,0 10,-2 15,-4 c1,8 -3,8 -3,16 c6,3 13,-3 17,-1 c-7,4 -7,6 -8,9 c7,3 6,2 14,0 c-5.33,4 -7,7.65 -5,11 c5.33,-3.35 8.33,-3.35 9,0 c-2,6 0,7 1,15 c10,-5 10,2 21,5 c5.97,3.27 6.4,10.54 11,14 c9,6.74 20,9 19,9 s-9,-11 -5,-10 c3.33,4 7.67,8.32 13,13 c0,-8 -0.6700000000000008,-13.68 -2,-17 c9,14 12,12 28,23 c3,-13 -6,-18 -15,-28 c19,22 19,20 30,24 c-24,-30 -20,-26 -29,-53 c-14,-26 -24,-61 -39,-75 c-18,-12 -19,-17 -38,-26 c-3.33,-4.68 -7.33,-8 -12,-10 c12,-2 21.33,-5.68 28,-11 c2,-5 7,-5 11,-9 c6,-1.35 9.67,-4.35 11,-9 l18,-6 z" id="svg_16" stroke="#ffffff" stroke-opacity="1" filter="url(#f009)"/>
      <path fill="#000" d="M1756,1371 c-11,-1 -12,-4 -24,-6 c-3,-6 -4,-5 -10,-7 c-14,0 -21,7 -29,12 c-24,-3 -31,-1 -44,2 c-46,12 -43,12 -70,23 c-46,27 -39,30 -58,40 c23,6 31,-3 47,-7 c-6.67,2.67 -8.67,6 -6,10 c6.67,-2.67 11,-3.67 13,-3 c-5,2 -9.7,10.57 -5,10 c27,-2 30.7,-14.27 46,-15 c-4,5 -6,8 -4,13 c12,-3 11,-2 18,-4 c-2,6 -3,6 0,15 c8.5,2 13,-5 13,-5 c4,4 0,11 0,20 c11,0 11,2 15,0 c-2,8 2,8 5,14 c4,-8 7,-5 14,-12 c-2,13 5,12 6,21 c10,-9 11,-11 13,-21 c-4,15 2,17 5,28 c4,-7 7,-7 8,-16 c1,5 3.98,7.87 5,6 c3,-10 3.3200000000000003,-8.12 4,-6 c-3,13 2,16 5,27 c7,-12 5,-18 5,-19 c2,15 15,8 28,33 c4,-14 -16,-38 -23,-73 c-4,-23 -3,-28 -14,-43 c-3,-7 -10,-8 -13,-7 c8,-4 7,-8 12,-15 c15,-2 11,-5 15,-10 c-1,0 5,-4 23,-5 z" id="svg_17" stroke="#ffffff" stroke-opacity="1" filter="url(#f009)"/>
      <path fill="#000" d="M2124.66,1385.3600000000001 c0,-3 -11,-6 -20,-6 c-1.34,-2.67 -3.67,-5 -7,-7 c-5.34,-2.67 -12.34,-2.67 -21,0 c-8,1 -16,-13 -8,-26 c7,-3 10,-9 11,-14 c-8,-4 -11,-5 -22,-4 c-65,4 -85,28 -110,50 c-8,7 10,5 18,5 c-42,0 -78,41 -72,37 s16,6 35,-11 c2,-1 -7,5 -15,15 c21,-3 21,-6 39,-4 c-2,7 3.6,7.22 9,8 c4.33,0.6200000000000006 9.2,-0.4400000000000003 15,0 c12.53,1.4 13,-1 18,-1 c6,0 5.35,0.6000000000000005 9,0 c9,-2 7,-3 10,-7 c-3,8 1,11 6,21 c7,-6 6,-14 6,-19 c0,13 -1,9 2,17 c6,-5 6,-4 8,-12 c-3,10 -1,17 3,28 c5,0 6.84,-4.66 10,-3 c0,5 0,3 6,13 c5,-5 2,3 7,-8 c-1,10 4,4 10,18 c5,-10 3,-14 -1,-23 c6,13 8,12 13,19 c2,-19 -1,-23 -7,-36 c3,-19 -6,-20 -5,-33.5 c8,-10.5 15,2 24,-6.5 c7,-1 4,-4 9,-7 c8,-5 19,1 20,-3 z" id="svg_18" stroke="#ffffff" stroke-opacity="1" filter="url(#f009)"/>
      <path fill="#000" d="M2490,1393.84 c-6,-3 -7,-1 -16,-3 c1,-5 -4.66,-10 -11,-10 c-9.16,0 -9.5,5.2 -21,8 c-9,2.2 -12.7,3.03 -18,-2 c-24,-15 -11,-19 -32,-44 c-9,-7 -12,-11 -4,-21 c13,-14 17,-22 17,-32 c-4,-7 -85,-3 -113,34 c5.06,1.15 16.8,-6.7 20.65,-6 c4.35,1 -18.65,13 -9.65,11 c9,-2 15,-7 21,-7 c2.67,-0.05000000000000005 -2,2 -3,7 c3.7800000000000002,0.9 9.8,-1.85 16,-3 c3.52,-0.6500000000000007 7.9,0.3400000000000004 10,0 c-4,3 -10,1 -20,17 c6,5.5 14,-1.5 20,-1.5 c-3,5.5 -11,2.5 -15,20.5 c2,4 11,-6 9,-2 c0,4 -7,2 -9,18 c6,0 8,-7 9,-2 c-2,3 -5,3 -5,9 c3,3 9,-4 11,-4 c-1,2 -6,2 -6,10 c-38,9 -49,18 -68,30 c7,4.9 23,-5 25,-1 c-1.46,3.22 -11,5.9 -28,11 c17,2 31,2 42.65,-5.1 c10.35,1.1 18.57,-1.9 21.35,-1.9 c4,6 0,13 7,15 c3,-5 8,-12 9,-15 c3,-2 -5,11 3,13 c9,0 19,7 36,7 c18,0 22,-6 42,-13 c12,-1 20,-5 25,-18 c3,-8 9,-4 18,-13 c2,-2 12,-3 16,-6 z" id="svg_19" stroke="#ffffff" stroke-opacity="1" filter="url(#f009)"/>
      <path fill="#000" d="M2864,1390.74 c-0.52,-2.35 -8,-3 -20,-5 c-6.62,-3.1 -7.68,-9 -14,-9 c-13,0 -7.83,6.16 -21,9 c-7.7,1.6700000000000008 -15,2 -20,0 s-6.32,-3.7 -10,-6 c-19.2,-11.9 -10.17,0.25 -19.17,-20 c-10.54,-12 -10.6,-24.55 -6.83,-42 c0.97,-4.5 2.27,-8.15 4,-11 c6,-9.83 12.67,-30.6 11,-45 c-1.4,-12.16 -11,-14 -27,-17 c-21,-4 -33,-5 -58,-2 c-9,8 -21,5 -33,21 c9,-1 7,-3 14,3 c8,-4 15.48,-1.3 16,-1 c7.16,4.13 -3.54,3.73 1,6 c6,0 2,4 0,9 c5,-0.5 8,-1 6,4 c4.4,3.22 8.36,-3.24 9,1 c0.8600000000000005,5.76 -11.7,9.4 -9,17 c18,3 20,5 22,7 c-4,1 3,2 -26,11 c3,10 14,6 15,16 c0,7 -9,4 -12,17 c12,2 9,6 23,6 c-5,0 -18,4 -26,12 c9,2 6,6 14,7 c7,3 6,3.36 4,7 c-6.5,11.86 -5,15 -20,23 s-26.3,15.78 -35,22 c-4.63,3.3200000000000003 -7.48,8.23 -11,12 c12,-2 12,-3 15,-2 c2,4 1,-3 0,11 c6,-5 16,-12 22,-16 c5,0 13,-3 17,0 c5,0 0,-7 0,-8.96 c0,-1.96 3.48,5.8 5,3.96 c5,-6 4,-9 3,-14 c4,3 1,10.9 6,12 c19,6 21,5 42,-1 c1.2,-0.07 2.95,-0.92 4.3,-0.9600000000000005 c1.2,1.42 0.7000000000000005,3 3.7,3.96 c1.57,-2.35 4.93,-3.06 6.83,-3.1 c0.52,0 -0.24000000000000013,-0.93 0,-0.8600000000000005 c10,3 17.17,3.96 32.17,0.9600000000000005 c13,-8 24,-5 35,-17 c14,-6 14,-10 17,-16 c4,-3 9,0 20,-4 z" id="svg_20" stroke="#ffffff" stroke-opacity="1" filter="url(#f009)"/>
      <path fill="#000" d="M3248,1401 c-8,-3 -7,-2 -17,-4 c-7.6,-3.2800000000000002 -5,-11 -21,-13 c-16.1,1.03 -15,14 -31,13 c-10.43,-0.6500000000000007 -13,-7 -21,-11 s-13,-5 -19,-12 c-13,-42 -1.27,-9.56 -3,-59 c-0.27,-7.5600000000000005 -6,-44 -1,-54 c8,-3 4.84,-13.8 0,-22 c-32,-34 -40.22,-58.03 -60,-79 c-4,-1 5,12 -2,7 c-8.8,-5.08 -7,-14 -23,-22 c1,5 4,12 2,15 c-5,-3 -14,-23 -20,-23 c1,4 8,11 8,23 c0,4 -14,-6 -9,-1 s7,13 9,19 c7.25,13.18 22,23 22,22 c-3,-1 -17,-12 -26,-11 c2,5 8,7 10,17 c-2,2 0,3 -8,0 c4,19 14,28 35,41 c2.6,4.24 -11.1,-4.18 -14,-1 c-2.6,2.8200000000000003 1.6700000000000008,8.6 5,15 c9.17,17.6 18.32,18.92 20,30 c-1,4 -9.77,-1.26 -14,2 c-2.27,1.7400000000000002 4.75,5.74 4,10 c-0.7500000000000006,4.24 -9.22,1.6800000000000006 -8,6 c2.48,2.98 -2,12 -1,17 s4,6 4,11 s7,-2 8,6 c5,4 -1,4 -8,12 c5,5 10,4 8,14 s-7,6 -12,12 c-5,7 -3,11 -10,17 c-9,8 -15,4 -31,16 c-13,7 -14,2 -30,13 c18,2 36,12 68,5 c5,2 -5,5 -2,7 c14,1 16,3 23,0 c-4,3 -10.620000000000001,8.7 -7,9 c8.53,0.7400000000000005 23.38,-0.9500000000000005 30,0 c8.4,1.2 12.75,5 27,5 c7.7,0 16.25,-8.18 21,-7 c7.3,1.8 6,2.93 17,0 c19.33,-5.15 24,-9 39,-19 c8,-12 13,-9 20,-21 c11,-2 18,-2 18,-5 z" id="svg_21" stroke="#ffffff" stroke-opacity="1" filter="url(#f009)"/>
      <path fill="#000" d="M3600.2,1389 c0,-2.56 -5,-4 -13,-7 c-4.25,-3.13 0,-8 -10,-10 c-17,0 -11.03,8.98 -21,12 c-10,-1 -9,-2 -21,1 c-4.15,1.04 -3.9,-10.8 -6,-13 c-2.9699999999999998,-3.06 -5,-3 -10,-8 c-3,-11 6,-24 3,-45 c-1.34,-9.32 -4.68,-21.56 -9,-33 c-2.45,-13.1 -2,-10 -13,-23 c-21,-28 -37,-37 -47,-67 c-4.96,-4.5600000000000005 -0.6800000000000008,12.44 -5,11 c-7.68,-2.56 -15.4,-19 -19,-19 c-2.9,0 7.5,17.9 4,23 c-3,4.4 -17,-7.67 -17,-5 c0,3.33 8,16 15,19 c-4,4 -9.5,-4.6 -11,-1 c7,9 1,11 6,24 c5.77,12.05 11,8 16,18 c-3.62,4.17 -24.5,-6.8 -26,-3 c-1.02,2.5300000000000002 9.7,2.7 17,10 c6,6 1.8,13.48 6,16 c5,3 2,6 8,13 s10,-2 8,8 c-0.9400000000000005,4.66 -4,4.34 -4,9 c0,5.34 8,-1 6,5 c0,2.5700000000000003 -4,4 -6,8 c0,0.7200000000000005 7.58,-1.47 8,1 c1.08,6.53 -7.23,11.8 -4,17 c3.27,5.3 12,4 17,3 c-5,4 -13,3.95 -13,9 c0,9.45 10,13 4,18 c2,5 -5,9 -4,13 s5.17,8.47 10,10 c3.24,1.03 9,2 6,3 c-6,2 -7,-1 -12,3 c-4.25,0 -2,-6 -10,-4 c-24,4 -60,20 -73,34 c-2,3 12,-3 21,-4 c-8,3 -20,7 -5,6 c11,1 28,0 57,-5 c21.46,-0.6600000000000008 17,7 39,2 c11,3 28,6 43,-5 c14,-2 15.58,-9.85 33,-23 c6,-2 11,-11 14,-17 c7.8,-3.5300000000000002 12,-1 18,-4 z" id="svg_22" stroke="#ffffff" stroke-opacity="1" filter="url(#f009)"/>
    </g>
  </g><g fill="none" fill-rule="evenodd" class="" stroke="#ffffff" stroke-opacity="1" id="svg_23" filter="url(#f038)">
    <g id="svg_25" stroke="#ffffff" stroke-opacity="1" filter="url(#f038)">
      <path class="cell-container" stroke="#ffffff" d="M10.5,545.5 h359 v509 H10.5 z" id="svg_3" stroke-opacity="1" filter="url(#f038)"/>
      <path class="cell-container" stroke="#ffffff" d="M369.5,545.5 h359 v509 h-359 z" id="svg_4" stroke-opacity="1" filter="url(#f038)"/>
      <path class="cell-container" stroke="#ffffff" d="M728.5,545.5 h359 v509 h-359 z" id="svg_5" stroke-opacity="1" filter="url(#f038)"/>
      <path class="cell-container" stroke="#ffffff" d="M1087.5,545.5 h370 v509 h-370 z" id="svg_6" stroke-opacity="1" filter="url(#f038)"/>
      <path class="cell-container" stroke="#ffffff" d="M1458.5,545.5 h370 v509 h-370 z" id="svg_7" stroke-opacity="1" filter="url(#f038)"/>
      <path class="cell-container" stroke="#ffffff" d="M1828.5,545.5 h370 v509 h-370 z" id="svg_8" stroke-opacity="1" filter="url(#f038)"/>
      <path class="cell-container" stroke="#ffffff" d="M2199.5,545.5 h370 v509 h-370 z" id="svg_9" stroke-opacity="1" filter="url(#f038)"/>
      <path class="cell-container" stroke="#ffffff" d="M2569.5,545.5 h370 v509 h-370 z" id="svg_10" stroke-opacity="1" filter="url(#f038)"/>
      <path class="cell-container" stroke="#ffffff" d="M2940.5,545.5 h370 v509 h-370 z" id="svg_11" stroke-opacity="1" filter="url(#f038)"/>
      <path class="cell-container" stroke="#ffffff" d="M3310.5,545.5 h370 v509 h-370 z" id="svg_12" stroke-opacity="1" filter="url(#f038)"/>
      <path fill="#000" d="M61,833.3800000000001 c13.33,-5.34 35.33,-9.34 66,-12 c0,0 18.44,-9.95 55,-15 c1.04,-0.15000000000000016 7.5,-8 36,-13 c16,0 21,-3.88 30,5 c3.5300000000000002,-13.53 19.13,-16.58 29,-15 c6.9,1.1 11.3,5.93 12,8 c4,12 21,5 30,12 c-23,6 -23,7 -32,11 c-16,14 -31,31 -47,31 c-16,4 -32.83,5.33 -50.5,4 c-1,4 -3.5,6.66 -7.5,8 c-6,2 -1,-9 -4,-12 s-3,10 -17,18 c-1,-14 -5,-10 -5,-18 s4,13 -17,18 c-14,3.33 -31.67,4 -53,2 c26,-8.67 41.33,-16.34 46,-23 c-5,0 -18,-1 -21,-9 c-14,-4.5 -30.67,-4.5 -50,0 z" id="svg_13" stroke="#ffffff" stroke-opacity="1" filter="url(#f038)"/>
      <path fill="#000" d="M649,818 c0,2.07 -10,3 -16,5 c-9,1 -8,8 -14,7 s-5,8 -19,14 c2,11 21,9 36,19 c29,30.62 18,19 37,63 c14,28 18,30 27,57 c-1,1 -11,-1 -14,-7 c-1,5 -5,1 -4,7 c-5,-1 -8,-8 -12,-11 c-4,-1 1,7 -2,8 c-4,0 -5,-8 -9,-8 c-4,1 1,6 -2,7 c-33,-30 -43,-21 -43,-36 c-8,10 -10,-2 -19,3 c-4,-5 -6,-10 -2,-17 c-1,-5 -7,5 -11,3 c-1.33,-6 1,-12.67 7,-20 c-6.67,6.67 -14,10 -22,10 c1,-10 -1,-6.5 5,-16 c-6,7.5 -13,8 -19,6 c-4.43,-2.1 4,-8 2,-11.5 c-8,0 -22.76,-0.3000000000000003 -24,-3.5 c-3.26,-8.4 8,-19 4,-25 c-3.12,-4.67 -12,9 -15,-3 c0,-12 -4.67,-17 -14,-15 c-8.67,-1.33 -19.33,-1.33 -32,0 c-19,2 -27,-5 -58,-5 c10,-5 9,-13 27,-13 c-21,-3 -10,-10 -45,-13 c30,-8 32,0 54,7 c68,-7 22,-15 94,-22 c14,-2 36,-4 58,2 c5,-2 6,-5 15,-6 c8,0 12.67,3.67 14,11 c10.67,0.7200000000000006 16,1.7200000000000002 16,3 z" id="svg_14" stroke="#ffffff" stroke-opacity="1" filter="url(#f038)"/>
      <path fill="#000" d="M739,844.03 c32,-14 56,-26 90,-40 c20,-6 37,-5 56,-8 c28,0 17,-8 55,-3 c8,-1 10.95,-7.5 19,-7 c8.67,0 13.33,2.66 14,8 l26,5 l-24,5 c-2.67,5.33 -8,8.33 -16,9 c-12,12 -11,18 -29,21 c22,13 23,17 64,38 c13,11 13,15 17,31 c4,15.98 14.06,25.74 21,35 c26,46 23,59 45,80 c-11,-1 -23,-8 -28,-13 c-4,-1 -3,5 -3,8 c-6,-2 -8,-15 -16,-13 c-3.46,0 4,5 0,13 c-13,-5 -14,-7 -16,-13 c-3,-4 -7,-11 -3,-12 c-2,8 0,12 -6,12 c-5,-10 -7,-3 -11,-12 c-8,-14 -17,-12 -17,-29 c-4,0 -7,4 -10,9 c-3,-4 0,-9 -1,-12 c-2,0.6600000000000009 -4.33,1.6600000000000001 -7,3 c-2,-12.67 -2,-21.67 0,-27 c-8,2 -4,6 -15,10 c-5,-6 -4,-12 -2,-21 c-5,6 -5,-3 -12,2 c-9,-9 -10,-18 -25,-18 c-5,-12 -3,-20 -11,-22 c-3.23,0.8600000000000007 -4,10 -6,7 s-2,-10 -5,-12 c-2,-3 -6,6 -9,3 c0,-5 -2,-11 -6,-14 c-3,-4 -5,0 -10,3 c-2,-5 -2,-9 -1,-14 c-4,-1 -14,5 -12,-2 c0,-7 -4,-4 -8,-4 c-5,0 1,-5 -1,-6 c-5,-2 -13,2 -21,6 c-5,-2 4,-10 0,-10 c-31,-1 -38,7 -76,4 z" id="svg_15" stroke="#ffffff" stroke-opacity="1" filter="url(#f038)"/>
      <path fill="#000" d="M1377,799.0999999999999 l-18,-3 c-2,-6 -5.33,-9.35 -10,-10 c-14,-1 -17,7 -22,10 c-21,-3 -19,-1 -35,0 c-30,-5 -36,4 -50,7 c-36,5 -33,9 -48,16 c-34,18 -41,19 -75,29 c6.67,0.6500000000000008 14,0 22,-2 c-14.67,4 -21,6.32 -19,7 c31,-5 29.02,4.23 52,0 c11,-3 10,-9 13,-12 c2,7 1,7 2,13 c16,-3 21,-2 30,-2 c3,4 -3.66,8.6 0,10 c4,-1.35 9.33,-2.68 16,-4 c-4,4.65 -5.67,8.32 -5,11 c15,2 12,4 24,1 c-11,4 -11,4 -16,10 c16,3 14,1 24,2 c-4,4 -3,8 -1,11 c6,-3 9.53,-4.5 12,-3 c-3,3.44 -5,7 -2,9 c10,-2 12.4,-5.28 15,-2 c-3,8 0,11 1,22 c5,0 10,-2 15,-4 c1,8 -3,8 -3,16 c6,3 13,-3 17,-1 c-7,4 -7,6 -8,9 c7,3 6,2 14,0 c-5.33,4 -7,7.65 -5,11 c5.33,-3.35 8.33,-3.35 9,0 c-2,6 0,7 1,15 c10,-5 10,2 21,5 c5.97,3.27 6.4,10.54 11,14 c9,6.74 20,9 19,9 s-9,-11 -5,-10 c3.33,4 7.67,8.32 13,13 c0,-8 -0.6700000000000009,-13.68 -2,-17 c9,14 12,12 28,23 c3,-13 -6,-18 -15,-28 c19,22 19,20 30,24 c-24,-30 -20,-26 -29,-53 c-14,-26 -24,-61 -39,-75 c-18,-12 -19,-17 -38,-26 c-3.33,-4.68 -7.33,-8 -12,-10 c12,-2 21.33,-5.68 28,-11 c2,-5 7,-5 11,-9 c6,-1.35 9.67,-4.35 11,-9 l18,-6 z" id="svg_16" stroke="#ffffff" stroke-opacity="1" filter="url(#f038)"/>
      <path fill="#000" d="M1761,801 c-11,-1 -12,-4 -24,-6 c-3,-6 -4,-5 -10,-7 c-14,0 -21,7 -29,12 c-24,-3 -31,-1 -44,2 c-46,12 -43,12 -70,23 c-46,27 -39,30 -58,40 c23,6 31,-3 47,-7 c-6.67,2.67 -8.67,6 -6,10 c6.67,-2.67 11,-3.67 13,-3 c-5,2 -9.7,10.57 -5,10 c27,-2 30.7,-14.27 46,-15 c-4,5 -6,8 -4,13 c12,-3 11,-2 18,-4 c-2,6 -3,6 0,15 c8.5,2 13,-5 13,-5 c4,4 0,11 0,20 c11,0 11,2 15,0 c-2,8 2,8 5,14 c4,-8 7,-5 14,-12 c-2,13 5,12 6,21 c10,-9 11,-11 13,-21 c-4,15 2,17 5,28 c4,-7 7,-7 8,-16 c1,5 3.98,7.87 5,6 c3,-10 3.3200000000000003,-8.12 4,-6 c-3,13 2,16 5,27 c7,-12 5,-18 5,-19 c2,15 15,8 28,33 c4,-14 -16,-38 -23,-73 c-4,-23 -3,-28 -14,-43 c-3,-7 -10,-8 -13,-7 c8,-4 7,-8 12,-15 c15,-2 11,-5 15,-10 c-1,0 5,-4 23,-5 z" id="svg_17" stroke="#ffffff" stroke-opacity="1" filter="url(#f038)"/>
      <path fill="#000" d="M2129.66,815.3600000000001 c0,-3 -11,-6 -20,-6 c-1.34,-2.67 -3.67,-5 -7,-7 c-5.34,-2.67 -12.34,-2.67 -21,0 c-8,1 -16,-13 -8,-26 c7,-3 10,-9 11,-14 c-8,-4 -11,-5 -22,-4 c-65,4 -85,28 -110,50 c-8,7 10,5 18,5 c-42,0 -78,41 -72,37 s16,6 35,-11 c2,-1 -7,5 -15,15 c21,-3 21,-6 39,-4 c-2,7 3.6,7.22 9,8 c4.33,0.6200000000000007 9.2,-0.44000000000000034 15,0 c12.53,1.4 13,-1 18,-1 c6,0 5.35,0.6000000000000006 9,0 c9,-2 7,-3 10,-7 c-3,8 1,11 6,21 c7,-6 6,-14 6,-19 c0,13 -1,9 2,17 c6,-5 6,-4 8,-12 c-3,10 -1,17 3,28 c5,0 6.84,-4.66 10,-3 c0,5 0,3 6,13 c5,-5 2,3 7,-8 c-1,10 4,4 10,18 c5,-10 3,-14 -1,-23 c6,13 8,12 13,19 c2,-19 -1,-23 -7,-36 c3,-19 -6,-20 -5,-33.5 c8,-10.5 15,2 24,-6.5 c7,-1 4,-4 9,-7 c8,-5 19,1 20,-3 z" id="svg_18" stroke="#ffffff" stroke-opacity="1" filter="url(#f038)"/>
      <path fill="#000" d="M2495,823.8399999999999 c-6,-3 -7,-1 -16,-3 c1,-5 -4.66,-10 -11,-10 c-9.16,0 -9.5,5.2 -21,8 c-9,2.2 -12.7,3.03 -18,-2 c-24,-15 -11,-19 -32,-44 c-9,-7 -12,-11 -4,-21 c13,-14 17,-22 17,-32 c-4,-7 -85,-3 -113,34 c5.06,1.15 16.8,-6.7 20.65,-6 c4.35,1 -18.65,13 -9.65,11 c9,-2 15,-7 21,-7 c2.67,-0.05000000000000006 -2,2 -3,7 c3.7800000000000002,0.9 9.8,-1.85 16,-3 c3.52,-0.6500000000000008 7.9,0.34000000000000047 10,0 c-4,3 -10,1 -20,17 c6,5.5 14,-1.5 20,-1.5 c-3,5.5 -11,2.5 -15,20.5 c2,4 11,-6 9,-2 c0,4 -7,2 -9,18 c6,0 8,-7 9,-2 c-2,3 -5,3 -5,9 c3,3 9,-4 11,-4 c-1,2 -6,2 -6,10 c-38,9 -49,18 -68,30 c7,4.9 23,-5 25,-1 c-1.46,3.22 -11,5.9 -28,11 c17,2 31,2 42.65,-5.1 c10.35,1.1 18.57,-1.9 21.35,-1.9 c4,6 0,13 7,15 c3,-5 8,-12 9,-15 c3,-2 -5,11 3,13 c9,0 19,7 36,7 c18,0 22,-6 42,-13 c12,-1 20,-5 25,-18 c3,-8 9,-4 18,-13 c2,-2 12,-3 16,-6 z" id="svg_19" stroke="#ffffff" stroke-opacity="1" filter="url(#f038)"/>
      <path fill="#000" d="M2869,820.74 c-0.52,-2.35 -8,-3 -20,-5 c-6.62,-3.1 -7.68,-9 -14,-9 c-13,0 -7.83,6.16 -21,9 c-7.7,1.6700000000000008 -15,2 -20,0 s-6.32,-3.7 -10,-6 c-19.2,-11.9 -10.17,0.25 -19.17,-20 c-10.54,-12 -10.6,-24.55 -6.83,-42 c0.97,-4.5 2.27,-8.15 4,-11 c6,-9.83 12.67,-30.6 11,-45 c-1.4,-12.16 -11,-14 -27,-17 c-21,-4 -33,-5 -58,-2 c-9,8 -21,5 -33,21 c9,-1 7,-3 14,3 c8,-4 15.48,-1.3 16,-1 c7.16,4.13 -3.54,3.73 1,6 c6,0 2,4 0,9 c5,-0.5 8,-1 6,4 c4.4,3.22 8.36,-3.24 9,1 c0.8600000000000007,5.76 -11.7,9.4 -9,17 c18,3 20,5 22,7 c-4,1 3,2 -26,11 c3,10 14,6 15,16 c0,7 -9,4 -12,17 c12,2 9,6 23,6 c-5,0 -18,4 -26,12 c9,2 6,6 14,7 c7,3 6,3.36 4,7 c-6.5,11.86 -5,15 -20,23 s-26.3,15.78 -35,22 c-4.63,3.3200000000000003 -7.48,8.23 -11,12 c12,-2 12,-3 15,-2 c2,4 1,-3 0,11 c6,-5 16,-12 22,-16 c5,0 13,-3 17,0 c5,0 0,-7 0,-8.96 c0,-1.96 3.48,5.8 5,3.96 c5,-6 4,-9 3,-14 c4,3 1,10.9 6,12 c19,6 21,5 42,-1 c1.2,-0.07 2.95,-0.92 4.3,-0.9600000000000006 c1.2,1.42 0.7000000000000006,3 3.7,3.96 c1.57,-2.35 4.93,-3.06 6.83,-3.1 c0.52,0 -0.24000000000000016,-0.93 0,-0.8600000000000007 c10,3 17.17,3.96 32.17,0.9600000000000006 c13,-8 24,-5 35,-17 c14,-6 14,-10 17,-16 c4,-3 9,0 20,-4 z" id="svg_20" stroke="#ffffff" stroke-opacity="1" filter="url(#f038)"/>
      <path fill="#000" d="M3253,831 c-8,-3 -7,-2 -17,-4 c-7.6,-3.2800000000000002 -5,-11 -21,-13 c-16.1,1.03 -15,14 -31,13 c-10.43,-0.6500000000000008 -13,-7 -21,-11 s-13,-5 -19,-12 c-13,-42 -1.27,-9.56 -3,-59 c-0.27,-7.5600000000000005 -6,-44 -1,-54 c8,-3 4.84,-13.8 0,-22 c-32,-34 -40.22,-58.03 -60,-79 c-4,-1 5,12 -2,7 c-8.8,-5.08 -7,-14 -23,-22 c1,5 4,12 2,15 c-5,-3 -14,-23 -20,-23 c1,4 8,11 8,23 c0,4 -14,-6 -9,-1 s7,13 9,19 c7.25,13.18 22,23 22,22 c-3,-1 -17,-12 -26,-11 c2,5 8,7 10,17 c-2,2 0,3 -8,0 c4,19 14,28 35,41 c2.6,4.24 -11.1,-4.18 -14,-1 c-2.6,2.8200000000000003 1.6700000000000008,8.6 5,15 c9.17,17.6 18.32,18.92 20,30 c-1,4 -9.77,-1.26 -14,2 c-2.27,1.7400000000000002 4.75,5.74 4,10 c-0.7500000000000007,4.24 -9.22,1.6800000000000006 -8,6 c2.48,2.98 -2,12 -1,17 s4,6 4,11 s7,-2 8,6 c5,4 -1,4 -8,12 c5,5 10,4 8,14 s-7,6 -12,12 c-5,7 -3,11 -10,17 c-9,8 -15,4 -31,16 c-13,7 -14,2 -30,13 c18,2 36,12 68,5 c5,2 -5,5 -2,7 c14,1 16,3 23,0 c-4,3 -10.620000000000001,8.7 -7,9 c8.53,0.7400000000000007 23.38,-0.9500000000000006 30,0 c8.4,1.2 12.75,5 27,5 c7.7,0 16.25,-8.18 21,-7 c7.3,1.8 6,2.93 17,0 c19.33,-5.15 24,-9 39,-19 c8,-12 13,-9 20,-21 c11,-2 18,-2 18,-5 z" id="svg_21" stroke="#ffffff" stroke-opacity="1" filter="url(#f038)"/>
      <path fill="#000" d="M3605.2,819 c0,-2.56 -5,-4 -13,-7 c-4.25,-3.13 0,-8 -10,-10 c-17,0 -11.03,8.98 -21,12 c-10,-1 -9,-2 -21,1 c-4.15,1.04 -3.9,-10.8 -6,-13 c-2.9699999999999998,-3.06 -5,-3 -10,-8 c-3,-11 6,-24 3,-45 c-1.34,-9.32 -4.68,-21.56 -9,-33 c-2.45,-13.1 -2,-10 -13,-23 c-21,-28 -37,-37 -47,-67 c-4.96,-4.5600000000000005 -0.6800000000000009,12.44 -5,11 c-7.68,-2.56 -15.4,-19 -19,-19 c-2.9,0 7.5,17.9 4,23 c-3,4.4 -17,-7.67 -17,-5 c0,3.33 8,16 15,19 c-4,4 -9.5,-4.6 -11,-1 c7,9 1,11 6,24 c5.77,12.05 11,8 16,18 c-3.62,4.17 -24.5,-6.8 -26,-3 c-1.02,2.5300000000000002 9.7,2.7 17,10 c6,6 1.8,13.48 6,16 c5,3 2,6 8,13 s10,-2 8,8 c-0.9400000000000006,4.66 -4,4.34 -4,9 c0,5.34 8,-1 6,5 c0,2.5700000000000003 -4,4 -6,8 c0,0.7200000000000006 7.58,-1.47 8,1 c1.08,6.53 -7.23,11.8 -4,17 c3.27,5.3 12,4 17,3 c-5,4 -13,3.95 -13,9 c0,9.45 10,13 4,18 c2,5 -5,9 -4,13 s5.17,8.47 10,10 c3.24,1.03 9,2 6,3 c-6,2 -7,-1 -12,3 c-4.25,0 -2,-6 -10,-4 c-24,4 -60,20 -73,34 c-2,3 12,-3 21,-4 c-8,3 -20,7 -5,6 c11,1 28,0 57,-5 c21.46,-0.6600000000000009 17,7 39,2 c11,3 28,6 43,-5 c14,-2 15.58,-9.85 33,-23 c6,-2 11,-11 14,-17 c7.8,-3.5300000000000002 12,-1 18,-4 z" id="svg_22" stroke="#ffffff" stroke-opacity="1" filter="url(#f038)"/>
    </g>
  </g><path fill="none" fill-opacity="1" stroke="#ffffff" stroke-opacity="1" stroke-width="1" stroke-dasharray="none" stroke-linejoin="miter" stroke-linecap="butt" stroke-dashoffset="" fill-rule="evenodd" opacity="1" marker-start="" marker-mid="" marker-end="" id="svg_27" d="M 191.60003376603072 297.49999556690454 C -53.3999625831849 452.49999325722456 256.60003279745524 237.49999646097422 255 235 C 256.60003279745524 237.49999646097422 606.6000275820488 267.4999960139394 605 265 C 606.6000275820488 267.4999960139394 631.6000272095198 442.4999934062362 630 440" style="color: rgb(0, 0, 0);" class=""/><polyline fill="none" stroke="#ffffff" stroke-dashoffset="" fill-rule="evenodd" marker-start="" marker-mid="" marker-end="" id="svg_24" points="296.6000322014088,217.49999675899744 296.6000322014088,212.49999683350325 291.6000322759146,207.49999690800905 271.6000325739378,207.49999690800905 241.60003302097266,202.49999698251486 211.6000334680075,197.49999705702066 176.60003398954814,192.49999713152647 151.60003436207717,192.49999713152647 131.6000346601004,192.49999713152647 116.60003488361781,192.49999713152647 91.60003525614684,197.49999705702066 71.60003555417006,207.49999690800905 56.60003577768748,217.49999675899744 46.60003592669909,227.49999660998583 36.600036075710705,237.49999646097422 26.600036224722317,247.4999963119626 21.600036299228123,262.4999960884452 21.600036299228123,277.49999586492777 21.600036299228123,282.49999579042196 21.600036299228123,302.49999549239874 21.600036299228123,307.49999541789293 26.600036224722317,322.4999951943755 31.60003615021651,337.4999949708581 36.600036075710705,342.4999948963523 46.60003592669909,357.4999946728349 51.60003585219329,362.49999459832907 66.60003562867587,377.49999437481165 96.60003518164103,397.4999940767884 126.6000347346062,402.4999940022826 161.60003421306556,407.4999939277768 201.6000336170191,412.499993853271 251.60003287196105,412.499993853271 321.60003182887976,412.499993853271 391.6000307857985,412.499993853271 461.6000297427172,412.499993853271 531.6000286996359,412.499993853271 586.600027880072,397.4999940767884 646.6000269860024,372.49999444931746 701.6000261664385,347.4999948218465 751.6000254213805,312.4999953433871 756.6000253468746,292.49999564141035 756.6000253468746,287.49999571591616 756.6000253468746,282.49999579042196 " style="color: rgb(0, 0, 0);"/><polyline fill="none" stroke="#ffffff" stroke-dashoffset="" fill-rule="evenodd" marker-start="" marker-mid="" marker-end="" id="svg_26" points="406.60003056228106,227.49999660998583 376.6000310093159,227.49999660998583 346.60003145635073,227.49999660998583 316.60003190338557,232.49999653548002 296.6000322014088,242.4999963864684 276.600032499432,257.499996162951 266.60003264844363,272.4999959394336 256.60003279745524,292.49999564141035 251.60003287196105,312.4999953433871 251.60003287196105,332.4999950453639 251.60003287196105,342.4999948963523 251.60003287196105,347.4999948218465 256.60003279745524,352.4999947473407 291.6000322759146,352.4999947473407 391.6000307857985,352.4999947473407 556.6000283271069,342.4999948963523 726.6000257939095,317.4999952688813 856.6000238567585,287.49999571591616 946.600022515654,262.4999960884452 1006.6000216215846,237.49999646097422 1041.600021100044,217.49999675899744 1056.6000208765265,207.49999690800905 1061.6000208020207,202.49999698251486 1051.6000209510323,202.49999698251486 1021.6000213980672,212.49999683350325 966.600022217631,232.49999653548002 901.6000231862063,252.4999962374568 826.6000243037934,287.49999571591616 746.6000254958863,307.49999541789293 706.6000260919327,322.4999951943755 701.6000261664385,322.4999951943755 696.6000262409443,327.4999951198697 " style="color: rgb(0, 0, 0);"/></g><defs><filter id="f001" xmlns:inkscape="http://www.inkscape.org/namespaces/inkscape" inkscape:label="Matte jelly" x="0" y="0" width="1" height="1" inkscape:menu="ABCs" inkscape:menu-tooltip="Bulging, matte jelly covering" color-interpolation-filters="sRGB">
            <feColorMatrix values="1 0 0 0 0 0 1 0 0 0 0 0 1 0 0 0 0 0 0.85 0" result="result0" in="SourceGraphic"/>
            <feGaussianBlur in="SourceAlpha" stdDeviation="7"/>
            <feSpecularLighting surfaceScale="5" specularConstant=".9" specularExponent="25">
                <feDistantLight elevation="60" azimuth="225"/>
            </feSpecularLighting>
            <feComposite operator="atop" in2="result0"/>
        </filter><filter id="f038" xmlns:inkscape="http://www.inkscape.org/namespaces/inkscape" inkscape:label="Button" x="0" y="0" width="1" height="1" inkscape:menu="Bevels" inkscape:menu-tooltip="Soft bevel, slightly depressed middle" color-interpolation-filters="sRGB">
            <feGaussianBlur stdDeviation="2.3" in="SourceAlpha" result="result0"/>
            <feMorphology in="SourceAlpha" radius="6.6" result="result1"/>
            <feGaussianBlur stdDeviation="8.9" in="result1"/>
            <feColorMatrix id="feColorMatrix2861" values="1 0 0 0 0 0 1 0 0 0 0 0 1 0 0 0 0 0 0.3 0" result="result91"/>
            <feComposite in="result0" operator="out" result="result2" in2="result91"/>
            <feGaussianBlur stdDeviation="1.7" result="result4"/>
            <feDiffuseLighting surfaceScale="10">
                <feDistantLight azimuth="225" elevation="45"/>
            </feDiffuseLighting>
            <feBlend id="feBlend2863" in2="SourceGraphic" mode="multiply"/>
            <feComposite in2="SourceAlpha" operator="in" result="result3"/>
            <feSpecularLighting in="result4" surfaceScale="5" specularExponent="17.9">
                <feDistantLight azimuth="225" elevation="45"/>
            </feSpecularLighting>
            <feComposite in2="result3" operator="atop"/>
        </filter><filter id="f009" xmlns:inkscape="http://www.inkscape.org/namespaces/inkscape" inkscape:label="Roughen" inkscape:menu="ABCs" inkscape:menu-tooltip="Small-scale roughening to edges and content" color-interpolation-filters="sRGB">
            <feTurbulence numOctaves="3" seed="0" type="turbulence" baseFrequency=".04" result="result91"/>
            <feDisplacementMap scale="6.6" yChannelSelector="G" xChannelSelector="R" in="SourceGraphic" in2="result91"/>
        </filter></defs></svg>